<svg width="37" height="37" viewBox="0 0 37 37" fill="none" xmlns="http://www.w3.org/2000/svg">
<mask id="mask0_95_26" style="mask-type:alpha" maskUnits="userSpaceOnUse" x="1" y="1" width="36" height="36">
<rect x="1" y="1" width="36" height="35.3571" fill="#D9D9D9"/>
</mask>
<g mask="url(#mask0_95_26)">
</g>
<path d="M32.7604 31.6041V5.39575C32.7597 4.78265 32.5158 4.19486 32.0823 3.76133C31.6488 3.32781 31.061 3.08395 30.4479 3.08325H6.55206C5.93896 3.08395 5.35117 3.32781 4.91764 3.76133C4.48412 4.19486 4.24026 4.78265 4.23956 5.39575V31.6041C4.24026 32.2172 4.48412 32.805 4.91764 33.2385C5.35117 33.672 5.93896 33.9159 6.55206 33.9166H30.4479C31.061 33.9159 31.6488 33.672 32.0823 33.2385C32.5158 32.805 32.7597 32.2172 32.7604 31.6041ZM6.55206 3.85409H30.4479C30.8566 3.85454 31.2485 4.01712 31.5375 4.30614C31.8265 4.59516 31.9891 4.98702 31.9896 5.39575V10.0208H5.0104V5.39575C5.01086 4.98702 5.17343 4.59516 5.46245 4.30614C5.75147 4.01712 6.14333 3.85454 6.55206 3.85409ZM5.0104 31.6041V10.7916H31.9896V31.6041C31.9891 32.0128 31.8265 32.4047 31.5375 32.6937C31.2485 32.9827 30.8566 33.1453 30.4479 33.1458H6.55206C6.14333 33.1453 5.75147 32.9827 5.46245 32.6937C5.17343 32.4047 5.01086 32.0128 5.0104 31.6041ZM18.5 15.4166C14.8872 15.4166 11.9479 18.3559 11.9479 21.9687C11.9479 25.5815 14.8872 28.5208 18.5 28.5208C22.1128 28.5208 25.0521 25.5815 25.0521 21.9687C25.0521 18.3559 22.1128 15.4166 18.5 15.4166ZM18.5 27.7499C15.3122 27.7499 12.7187 25.1565 12.7187 21.9687C12.7187 18.7809 15.3122 16.1874 18.5 16.1874C21.6878 16.1874 24.2812 18.7809 24.2812 21.9687C24.2812 25.1565 21.6878 27.7499 18.5 27.7499ZM18.5 13.1041C16.4491 13.1041 14.4617 13.8152 12.8763 15.1162C11.291 16.4173 10.2058 18.2278 9.80573 20.2393C9.40562 22.2507 9.71533 24.3387 10.6821 26.1474C11.6489 27.9561 13.2129 29.3736 15.1076 30.1585C17.0024 30.9433 19.1107 31.0469 21.0732 30.4516C23.0358 29.8562 24.7312 28.5988 25.8706 26.8936C27.01 25.1884 27.5229 23.1408 27.3219 21.0998C27.1209 19.0588 26.2184 17.1507 24.7682 15.7005C23.947 14.8747 22.9701 14.2201 21.8942 13.7744C20.8182 13.3287 19.6646 13.1009 18.5 13.1041ZM18.5 30.0624C14.0371 30.0624 10.4062 26.4316 10.4062 21.9687C10.4062 17.5058 14.0371 13.8749 18.5 13.8749C22.9629 13.8749 26.5937 17.5058 26.5937 21.9687C26.5937 26.4316 22.9629 30.0624 18.5 30.0624ZM8.86456 9.24992C9.32193 9.24992 9.76903 9.11429 10.1493 8.86019C10.5296 8.60609 10.826 8.24493 11.001 7.82237C11.1761 7.39982 11.2219 6.93485 11.1326 6.48627C11.0434 6.03769 10.8232 5.62564 10.4997 5.30223C10.1763 4.97883 9.76429 4.75858 9.31571 4.66935C8.86713 4.58012 8.40216 4.62592 7.97961 4.80095C7.55705 4.97598 7.19589 5.27237 6.94179 5.65266C6.68769 6.03295 6.55206 6.48005 6.55206 6.93742C6.55276 7.55052 6.79662 8.13831 7.23015 8.57184C7.66367 9.00536 8.25146 9.24923 8.86456 9.24992ZM8.47915 5.44455V6.16659C8.47915 6.2688 8.51975 6.36684 8.59203 6.43912C8.66431 6.5114 8.76234 6.552 8.86456 6.552C8.96678 6.552 9.06482 6.5114 9.13709 6.43912C9.20937 6.36684 9.24998 6.2688 9.24998 6.16659V5.44455C9.6133 5.53835 9.92993 5.76145 10.1405 6.07201C10.3511 6.38257 10.4412 6.75927 10.3939 7.13152C10.3467 7.50376 10.1652 7.84597 9.88369 8.09402C9.60215 8.34207 9.2398 8.47893 8.86456 8.47893C8.48933 8.47893 8.12698 8.34207 7.84543 8.09402C7.56388 7.84597 7.38247 7.50376 7.33518 7.13152C7.2879 6.75927 7.37801 6.38257 7.5886 6.07201C7.7992 5.76145 8.11583 5.53835 8.47915 5.44455ZM15.0312 9.24992C15.4886 9.24992 15.9357 9.11429 16.316 8.86019C16.6963 8.60609 16.9927 8.24493 17.1677 7.82237C17.3427 7.39982 17.3885 6.93485 17.2993 6.48627C17.2101 6.03769 16.9898 5.62564 16.6664 5.30223C16.343 4.97883 15.931 4.75858 15.4824 4.66935C15.0338 4.58012 14.5688 4.62592 14.1463 4.80095C13.7237 4.97598 13.3626 5.27237 13.1085 5.65266C12.8544 6.03295 12.7187 6.48005 12.7187 6.93742C12.7194 7.55052 12.9633 8.13831 13.3968 8.57184C13.8303 9.00536 14.4181 9.24923 15.0312 9.24992ZM14.6458 5.44455V6.16659C14.6458 6.2688 14.6864 6.36684 14.7587 6.43912C14.831 6.5114 14.929 6.552 15.0312 6.552C15.1334 6.552 15.2315 6.5114 15.3038 6.43912C15.376 6.36684 15.4166 6.2688 15.4166 6.16659V5.44455C15.78 5.53835 16.0966 5.76145 16.3072 6.07201C16.5178 6.38257 16.6079 6.75927 16.5606 7.13152C16.5133 7.50376 16.3319 7.84597 16.0504 8.09402C15.7688 8.34207 15.4065 8.47893 15.0312 8.47893C14.656 8.47893 14.2936 8.34207 14.0121 8.09402C13.7306 7.84597 13.5491 7.50376 13.5019 7.13152C13.4546 6.75927 13.5447 6.38257 13.7553 6.07201C13.9659 5.76145 14.2825 5.53835 14.6458 5.44455ZM21.1979 9.24992C21.6553 9.24992 22.1024 9.11429 22.4827 8.86019C22.8629 8.60609 23.1593 8.24493 23.3344 7.82237C23.5094 7.39982 23.5552 6.93485 23.466 6.48627C23.3767 6.03769 23.1565 5.62564 22.8331 5.30223C22.5097 4.97883 22.0976 4.75858 21.649 4.66935C21.2005 4.58012 20.7355 4.62592 20.3129 4.80095C19.8904 4.97598 19.5292 5.27237 19.2751 5.65266C19.021 6.03295 18.8854 6.48005 18.8854 6.93742C18.8861 7.55052 19.13 8.13831 19.5635 8.57184C19.997 9.00536 20.5848 9.24923 21.1979 9.24992ZM20.8125 5.44455V6.16659C20.8125 6.2688 20.8531 6.36684 20.9254 6.43912C20.9976 6.5114 21.0957 6.552 21.1979 6.552C21.3001 6.552 21.3981 6.5114 21.4704 6.43912C21.5427 6.36684 21.5833 6.2688 21.5833 6.16659V5.44455C21.9466 5.53835 22.2633 5.76145 22.4739 6.07201C22.6845 6.38257 22.7746 6.75927 22.7273 7.13152C22.68 7.50376 22.4986 7.84597 22.217 8.09402C21.9355 8.34207 21.5731 8.47893 21.1979 8.47893C20.8227 8.47893 20.4603 8.34207 20.1788 8.09402C19.8972 7.84597 19.7158 7.50376 19.6685 7.13152C19.6212 6.75927 19.7113 6.38257 19.9219 6.07201C20.1325 5.76145 20.4492 5.53835 20.8125 5.44455ZM25.4375 8.8645H30.0625C30.1647 8.8645 30.2627 8.8239 30.335 8.75162C30.4073 8.67934 30.4479 8.5813 30.4479 8.47909V5.39575C30.4479 5.29353 30.4073 5.1955 30.335 5.12322C30.2627 5.05094 30.1647 5.01034 30.0625 5.01034H25.4375C25.3353 5.01034 25.2372 5.05094 25.165 5.12322C25.0927 5.1955 25.0521 5.29353 25.0521 5.39575V8.47909C25.0521 8.5813 25.0927 8.67934 25.165 8.75162C25.2372 8.8239 25.3353 8.8645 25.4375 8.8645ZM25.8229 5.78117H29.6771V8.09367H25.8229V5.78117Z" fill="black"/>
</svg>
